<svg width="1260" height="105" viewBox="0 0 1260 105" fill="none" xmlns="http://www.w3.org/2000/svg">
<g filter="url(#filter0_ddd)">
<path d="M62.5526 31.4997H61.057C61.0048 25.9812 58.817 21.8864 54.487 19.2218C50.2485 16.603 45.1088 15.2968 39.0613 15.2968C34.2546 15.2968 30.3035 16.3222 27.2079 18.3598C24.0666 20.4104 22.4992 22.866 22.4992 25.72C22.4992 28.7633 23.7335 31.1667 26.2087 32.93C28.7818 34.837 33.8497 37.0966 41.4189 39.7155C48.4591 42.1449 53.3899 44.1172 56.1981 45.6389C59.1957 47.3108 61.697 49.688 63.6955 52.7836C65.6939 55.9706 66.6931 59.5169 66.6931 63.4223C66.6931 69.3718 64.5053 74.0348 60.1231 77.4113C61.7428 75.1777 62.5526 72.0364 62.5526 67.9938C62.5526 64.1799 61.6709 60.8034 59.9141 57.8515C58.0594 54.8473 55.7671 52.4701 53.0568 50.7068C50.2943 48.9043 45.8011 46.9712 39.5576 44.9271C30.1794 41.8315 24.0666 39.193 21.2126 37.0052C18.3521 34.7651 16.9284 31.2907 16.9284 26.5755C16.9284 21.1484 19.1162 16.8903 23.4984 13.7947C27.874 10.7971 34.0848 9.30154 42.1308 9.30154C47.6036 9.30154 54.2911 10.2485 62.1934 12.149V12.6518L62.3371 15.3621C62.3371 16.7924 62.3893 18.51 62.4807 20.5019C62.6244 22.9313 62.6963 25.08 62.6963 26.9347C62.6963 28.169 62.6505 29.6972 62.5526 31.4997ZM12.1413 61.3455H13.7871C14.1136 67.4453 16.5692 72.4609 21.1408 76.4186C25.6144 80.324 30.7541 82.2702 36.5665 82.2702C41.0401 82.2702 44.6778 81.0097 47.486 78.4823C50.2943 75.968 51.6984 72.9442 51.6984 69.4176C51.6984 65.7015 50.34 62.828 47.6297 60.7773C45.0108 58.7789 39.845 56.5192 32.1321 53.9918C25.9474 51.9477 21.5457 50.2562 18.9268 48.9239C15.8769 47.3565 13.4997 45.2405 11.7887 42.5694C9.92737 39.8526 9 36.8093 9 33.4329C9 29.6711 10.2604 25.9812 12.7813 22.3631C12.2132 24.2179 11.9323 25.8375 11.9323 27.2221C11.9323 30.9316 12.8075 34.1904 14.5708 37.0052C16.3798 39.9049 18.6133 42.0927 21.2844 43.5752C23.949 45.0903 28.3965 46.8341 34.6334 48.7802C42.7773 51.2554 48.655 53.9918 52.2731 56.9894C55.7475 59.9022 57.4847 63.8011 57.4847 68.6992C57.4847 73.5124 55.6756 77.8684 52.0576 81.7673C48.3938 85.725 42.921 87.6973 35.6326 87.6973C32.6807 87.6973 28.5859 87.1487 23.3547 86.058C18.7831 85.1045 15.3545 84.6017 13.0687 84.556L12.5723 83.9812C12.6181 83.178 12.6442 82.1265 12.6442 80.8465C12.6442 79.3183 12.5005 76.9672 12.2132 73.7736C11.9715 70.58 11.854 68.2028 11.854 66.6354C11.854 64.5848 11.9519 62.828 12.1413 61.3455Z" fill="#FCE0C5"/>
<path d="M164.33 86.0965L160.902 10.8421H163.331C166.806 10.8421 171.684 10.5547 177.967 9.98001V11.2666C174.682 11.8413 172.161 13.363 170.398 15.8381C168.543 18.3133 167.615 21.311 167.615 24.8311L167.753 32.4721L169.327 66.6739C169.614 72.9108 170.587 77.5085 172.252 80.4604C173.924 83.4581 176.543 85.1953 180.109 85.672V86.9586C173.062 86.3839 167.805 86.0965 164.33 86.0965ZM127.34 60.6068L150.191 10.8421H155.69L159.047 86.0965H156.258C154.26 86.0965 151.641 86.2402 148.408 86.521L143.693 86.9586V85.672C149.408 84.0981 152.262 78.9845 152.262 70.3181C152.262 70.4552 152.216 68.8617 152.118 65.5375L150.263 23.9102L127.412 73.9623L97.8534 10.8421H103.921L127.34 60.6068ZM91.9953 10.8421L124.558 80.1731L121.273 86.9586L91.7079 23.9755L89.8532 66.6086C89.7618 70.8928 89.7095 72.6496 89.7095 71.8855C89.7095 80.2253 92.9227 84.8165 99.349 85.672V86.9586C99.3033 86.9586 98.6371 86.8802 97.3505 86.7431C92.0214 86.312 88.5013 86.0965 86.7837 86.0965C84.4979 86.0965 80.3835 86.3839 74.434 86.9586V85.672C80.475 84.0981 83.7599 77.9134 84.2889 67.1049L86.3592 18.3329C83.5444 14.8128 79.5737 12.4617 74.434 11.2666V9.98001C78.2871 10.411 82.4081 10.6462 86.7837 10.6919L91.9953 10.8421Z" fill="#FCE0C5"/>
<path d="M211.215 86.0965V10.8421C217.119 10.8421 222.357 10.5547 226.928 9.98001V11.2666C224.12 11.789 221.782 13.3107 219.927 15.8381C218.02 18.457 217.067 23.858 217.067 32.0476V66.0992C217.067 73.4398 218.072 78.3575 220.071 80.8849C222.069 83.4124 224.355 85.0059 226.928 85.672V86.9586C222.448 86.3839 217.21 86.0965 211.215 86.0965ZM205.86 10.8421V86.0965C202.431 86.0965 197.219 86.3839 190.225 86.9586V85.672C193.889 84.7185 196.436 82.6482 197.866 79.4547C199.29 76.3134 200.008 70.6316 200.008 62.3897V30.4737C200.008 24.2825 199.264 19.7436 197.794 16.8374C196.318 13.9769 193.797 12.1221 190.225 11.2666V9.98001C196.031 10.4568 201.242 10.7441 205.86 10.8421Z" fill="#FCE0C5"/>
<path d="M283.401 86.0965H281.539V10.8421H307.245C311.96 10.8421 316.603 10.5547 321.175 9.98001C321.175 10.8813 321.096 12.527 320.959 14.9108C320.816 17.0986 320.744 19.835 320.744 23.12C320.744 25.2164 320.626 27.3324 320.391 29.4745H318.673C318.576 25.569 317.602 22.3298 315.748 19.7632C313.841 17.1443 309.818 15.8381 303.679 15.8381H287.469V66.9613C287.469 72.8194 288.299 77.2212 289.971 80.1731C291.636 83.125 294.203 84.9536 297.683 85.672V86.9586C289.252 86.3839 284.491 86.0965 283.401 86.0965ZM252.693 10.8421H276.256V86.0965H274.12C271.018 86.0965 266.401 86.3839 260.269 86.9586V85.672C264.213 84.6663 266.93 82.6483 268.406 79.5984C269.83 76.6007 270.548 71.5981 270.548 64.6036V15.8381H252.34C247.723 15.8381 244.457 16.7916 242.557 18.6921C240.65 20.5991 239.056 24.191 237.77 29.4745H236.131C236.078 28.854 236.059 28.1879 236.059 27.4695C236.059 26.5225 236.157 25.3078 236.34 23.8318C236.914 18.7443 237.202 14.1205 237.202 9.98001C239.723 10.3131 242.864 10.5286 246.626 10.62L252.693 10.8421Z" fill="#FCE0C5"/>
<path d="M402.089 86.0965V10.8421C407.229 10.8421 412.394 10.5547 417.586 9.98001V11.2666C411.539 12.9842 408.391 18.7443 408.156 28.5406L407.94 35.3326V67.6078C407.94 78.2726 411.154 84.294 417.586 85.672V86.9586C408.535 86.3839 403.375 86.0965 402.089 86.0965ZM396.805 10.8421V86.0965C394.709 86.1488 389.471 86.4296 381.092 86.9586V85.672C383.998 85.0516 386.376 83.4124 388.237 80.7478C390.092 78.0767 391.019 72.9369 391.019 65.3155V50.2555H354.747V67.6078C354.747 74.3149 355.694 78.8408 357.601 81.1723C359.554 83.5103 361.911 85.0059 364.674 85.672V86.9586C358.77 86.4818 353.513 86.1945 348.889 86.0965V10.8421C353.082 10.8421 358.339 10.5547 364.674 9.98001V11.2666C360.912 12.3115 358.319 14.2903 356.889 17.19C355.459 20.1028 354.747 25.1184 354.747 32.2631V44.1818H391.019V30.5455C391.019 24.5959 390.235 20.1028 388.661 17.0529C386.996 14.0552 384.475 12.1221 381.092 11.2666V9.98001C386.239 10.5547 391.476 10.8421 396.805 10.8421ZM343.605 10.8421V86.0965L328.33 86.9586V85.672C330.616 85.0516 332.562 83.8107 334.182 81.956C335.703 80.147 336.702 78.031 337.186 75.6015C337.656 73.2178 337.898 69.0838 337.898 63.1734V30.2582C337.898 23.2637 336.99 18.5027 335.181 15.9818C333.417 13.4544 331.138 11.887 328.33 11.2666V9.98001C331.275 10.3588 336.369 10.6462 343.605 10.8421Z" fill="#FCE0C5"/>
<path d="M497.544 34.137L498.974 35.8481C504.969 32.7525 507.967 28.6381 507.967 23.4918C507.967 20.6444 507.138 18.3782 505.466 16.7129C503.853 15.0932 501.71 14.2834 499.039 14.2834C496.087 14.2834 493.873 15.0214 492.404 16.4974C490.928 17.9733 490.19 19.5015 490.19 21.0689C490.19 24.0208 492.639 28.3769 497.544 34.137ZM552.239 78.4746L552.951 79.4738C549.764 81.5245 546.858 82.5433 544.239 82.5433C540.765 82.5433 536.624 80.9041 531.817 77.6191C529.29 75.8623 526.279 73.3022 522.785 69.9389C519.285 66.5886 514.916 62.1019 509.678 56.4854C499.921 45.9708 493.26 38.1535 489.687 33.066C486.311 28.2593 484.619 24.2298 484.619 20.9971C484.619 17.6664 485.997 14.832 488.76 12.5005C491.522 10.169 495.33 9 500.182 9C504.943 9 508.92 10.2408 512.107 12.716C515.347 15.2369 516.966 18.4501 516.966 22.3489C516.966 28.8732 512.205 34.8228 502.684 40.2041C507.013 45.3439 514.06 52.9849 523.817 63.1207C528.532 57.5565 530.89 53.3245 530.89 50.4118C530.89 46.9439 528.101 44.8475 522.537 44.1292V42.8491C530.152 43.5153 535.605 43.8418 538.89 43.8418C539.602 43.8418 541.196 43.7961 543.671 43.7047C546.479 43.561 548.811 43.4891 550.665 43.4891V44.7039C546.427 44.8018 541.718 48.348 536.533 55.3425L531.961 61.4096C531.817 61.5533 531.556 61.8668 531.171 62.337L527.677 66.8367C536.193 75.2157 542.861 79.4085 547.668 79.4085C549.189 79.4085 550.718 79.095 552.239 78.4746ZM487.617 48.0607C482.334 52.2469 479.695 57.132 479.695 62.6962C479.695 67.2155 481.452 71.5063 484.979 75.5488C488.446 79.5979 493.044 81.6225 498.759 81.6225C503.186 81.6225 507.732 79.4999 512.395 75.2615C510.586 73.459 508.346 71.1471 505.681 68.3323C503.017 65.5306 500.411 62.7223 497.864 59.9076C495.317 57.1058 493.162 54.6307 491.405 52.4886C489.119 49.8175 487.859 48.348 487.617 48.0607ZM516.607 79.0493C510.56 84.6136 504.114 87.4022 497.256 87.4022C490.262 87.4022 484.521 84.8095 480.048 79.6175C475.522 74.3798 473.269 68.9331 473.269 63.2709C473.269 55.3687 476.933 48.8966 484.26 43.8418C479.741 37.4677 477.481 32.4456 477.481 28.7818C477.481 26.0193 478.147 23.2829 479.48 20.566C479.623 23.9033 480.642 27.4038 482.549 31.061C483.594 33.0137 485.122 35.3256 487.121 37.9902C489.119 40.6548 491.999 44.201 495.761 48.6289C496.995 50.0591 498.909 52.2339 501.508 55.1662C504.101 58.092 506.622 60.8806 509.077 63.5191C511.526 66.1575 513.276 68.0253 514.321 69.1225C519.892 74.9806 524.653 79.1865 528.604 81.7596C532.791 84.4764 536.722 86.2136 540.386 86.9777C538.72 87.3108 537.218 87.4741 535.886 87.4741C531.602 87.4741 528.082 86.7361 525.319 85.2601C522.465 83.7384 519.559 81.6616 516.607 79.0493ZM470.336 52.4167C468.958 56.2699 468.266 60.0839 468.266 63.8391C468.266 69.0311 469.579 73.7398 472.198 77.9783C474.817 82.2625 478.049 85.3581 481.903 87.2585C476.051 86.8797 471.27 84.9009 467.554 81.3351C463.793 77.717 461.912 73.361 461.912 68.267C461.912 62.3109 464.72 57.034 470.336 52.4167Z" fill="#FCE0C5"/>
<path d="M665.08 29.1871L678.436 61.175L689.714 33.6803C692.235 27.5479 693.502 22.8065 693.502 19.4823C693.502 15.0479 691.406 12.3115 687.22 11.2666V9.98001C692.496 10.5482 696.356 10.8355 698.786 10.8355C703.063 10.8355 707.23 10.5482 711.279 9.98001V11.2666C707.942 13.1736 705.303 15.4528 703.351 18.1239C701.306 20.9256 698.759 26.0001 695.71 33.3342L678.436 75.2424L651.444 10.8355C657.25 10.6004 662.318 10.3131 666.647 9.98001V11.2666C663.415 12.3638 661.795 14.3557 661.795 17.2619C661.795 19.9787 662.892 23.9494 665.08 29.1871ZM645.801 10.8355L675.647 81.8842L673.433 87.455H671.937L653.514 43.8227L639.734 75.4579L611.24 10.8355C611.528 10.7898 613.905 10.6919 618.385 10.5482L621.526 10.3327L626.091 9.98001V11.2666C623.094 12.4552 621.591 14.3165 621.591 16.8308C621.591 19.3582 622.761 23.2637 625.092 28.5406L639.734 61.8216L650.66 37.0437L646.16 26.3332C644.162 21.5265 642.229 18.0978 640.374 16.0471C638.565 14.003 635.874 12.4095 632.302 11.2666V9.98001C637.017 10.4568 641.517 10.7441 645.801 10.8355ZM605.317 10.8355L636.808 81.956L634.307 87.455H633.092L606.388 27.045C602.241 17.7125 597.506 12.4552 592.177 11.2666V9.98001C594.698 10.3588 599.08 10.6462 605.317 10.8355Z" fill="#FCE0C5"/>
<path d="M741.321 86.0965V10.8421C747.225 10.8421 752.462 10.5547 757.034 9.98001V11.2666C754.226 11.789 751.888 13.3107 750.033 15.8381C748.132 18.457 747.172 23.858 747.172 32.0476V66.0992C747.172 73.4398 748.178 78.3575 750.177 80.8849C752.175 83.4124 754.461 85.0059 757.034 85.672V86.9586C752.56 86.3839 747.323 86.0965 741.321 86.0965ZM735.972 10.8421V86.0965C732.537 86.0965 727.325 86.3839 720.331 86.9586V85.672C724.001 84.7185 726.542 82.6482 727.972 79.4547C729.402 76.3134 730.114 70.6316 730.114 62.3897V30.4737C730.114 24.2825 729.376 19.7436 727.9 16.8374C726.424 13.9769 723.903 12.1221 720.331 11.2666V9.98001C726.137 10.4568 731.355 10.7441 735.972 10.8421Z" fill="#FCE0C5"/>
<path d="M822.144 86.0965H789.085V10.8421C792.324 10.7441 795.942 10.5547 799.946 10.2674C803.655 10.078 805.366 9.98001 805.085 9.98001V11.2666C801.415 12.2135 798.822 14.1009 797.294 16.9027C795.772 19.8154 795.015 24.1192 795.015 29.8337V60.8941C795.015 65.5571 795.25 69.7238 795.727 73.3876C796.158 77.2473 796.661 79.4547 797.229 80.0294C797.751 80.5976 799.136 80.8849 801.363 80.8849H816.364C821.648 80.8849 826.03 80.049 829.504 78.3836C832.972 76.7183 836.022 73.4398 838.641 68.5352H840.071C839.731 70.8144 838.66 74.439 836.858 79.3894C835.663 82.5242 834.905 85.0516 834.572 86.9586C830.712 86.3839 826.578 86.0965 822.144 86.0965ZM768.879 9.98001L783.945 10.8421V86.0965H779.524C776.807 86.0965 773.261 86.3839 768.879 86.9586V85.672C772.405 84.294 774.809 82.0801 776.089 79.0302C777.382 75.9346 778.015 70.9908 778.015 64.1791V30.0492C778.015 22.7673 777.068 17.9541 775.168 15.6226C773.209 13.2454 771.119 11.789 768.879 11.2666V9.98001Z" fill="#FCE0C5"/>
<path d="M899.639 86.0965H866.58V10.8421C869.82 10.7441 873.438 10.5547 877.441 10.2674C881.151 10.078 882.862 9.98001 882.581 9.98001V11.2666C878.91 12.2135 876.318 14.1009 874.79 16.9027C873.268 19.8154 872.51 24.1192 872.51 29.8337V60.8941C872.51 65.5571 872.745 69.7238 873.222 73.3876C873.653 77.2473 874.156 79.4547 874.724 80.0294C875.247 80.5976 876.631 80.8849 878.858 80.8849H893.859C899.143 80.8849 903.525 80.049 906.999 78.3836C910.467 76.7183 913.517 73.4398 916.136 68.5352H917.566C917.227 70.8144 916.156 74.439 914.353 79.3894C913.158 82.5242 912.4 85.0516 912.067 86.9586C908.208 86.3839 904.074 86.0965 899.639 86.0965ZM846.374 9.98001L861.441 10.8421V86.0965H857.019C854.302 86.0965 850.756 86.3839 846.374 86.9586V85.672C849.901 84.294 852.304 82.0801 853.584 79.0302C854.877 75.9346 855.511 70.9908 855.511 64.1791V30.0492C855.511 22.7673 854.564 17.9541 852.663 15.6226C850.704 13.2454 848.614 11.789 846.374 11.2666V9.98001Z" fill="#FCE0C5"/>
<path d="M946.669 86.0965V10.8421C952.573 10.8421 957.811 10.5547 962.382 9.98001V11.2666C959.574 11.789 957.236 13.3107 955.381 15.8381C953.481 18.457 952.521 23.858 952.521 32.0476V66.0992C952.521 73.4398 953.526 78.3575 955.525 80.8849C957.523 83.4124 959.809 85.0059 962.382 85.672V86.9586C957.908 86.3839 952.671 86.0965 946.669 86.0965ZM941.32 10.8421V86.0965C937.885 86.0965 932.673 86.3839 925.679 86.9586V85.672C929.349 84.7185 931.89 82.6482 933.32 79.4547C934.75 76.3134 935.462 70.6316 935.462 62.3897V30.4737C935.462 24.2825 934.724 19.7436 933.248 16.8374C931.772 13.9769 929.251 12.1221 925.679 11.2666V9.98001C931.485 10.4568 936.703 10.7441 941.32 10.8421Z" fill="#FCE0C5"/>
<path d="M1052.42 86.0965L1016.36 10.8421H1023.36C1024.31 13.3107 1025.64 16.4324 1027.35 20.1877C1029.26 24.2368 1030.33 26.6401 1030.56 27.4042C1030.81 27.8287 1031.02 28.3316 1031.21 28.8997L1047.99 63.6763C1053.85 75.7713 1060.08 83.0989 1066.7 85.672V86.9586C1060.22 86.3839 1055.47 86.0965 1052.42 86.0965ZM1001.43 50.1836H1023L1012.64 28.4752L1001.43 50.1836ZM1031.92 68.816L1025.57 55.5324H998.655L991.869 68.816L991.51 69.7434C991.465 69.7956 991.105 70.4814 990.439 71.8137C989.433 73.8186 988.937 75.8693 988.937 77.9591C988.937 81.5772 990.942 84.1438 994.939 85.672V86.9586C994.129 86.9586 992.718 86.8345 990.727 86.5994C987.918 86.2598 985.391 86.0965 983.157 86.0965C981.107 86.0965 978.586 86.2598 975.582 86.5994C973.537 86.8345 972.186 86.9586 971.513 86.9586V85.672C976.751 83.0009 981.518 77.5085 985.796 69.1752L1009.51 23.0481C1007.69 19.3844 1005.21 16.55 1002.04 14.5516C998.877 12.5531 995.174 11.456 990.942 11.2666V9.98001H993.437C995.677 9.98001 998.746 10.1237 1002.65 10.411C1006.75 10.6919 1009.4 10.8421 1010.65 10.8421L1046.71 86.0965C1042.08 86.1945 1036.54 86.4818 1030.07 86.9586V85.672C1033.69 85.0516 1035.5 83.0989 1035.5 79.8139C1035.5 77.3844 1034.31 73.7206 1031.92 68.816Z" fill="#FCE0C5"/>
<path d="M1162.12 86.0965L1158.7 10.8421H1161.13C1164.6 10.8421 1169.48 10.5547 1175.77 9.98001V11.2666C1172.48 11.8413 1169.95 13.363 1168.2 15.8381C1166.34 18.3133 1165.41 21.311 1165.41 24.8311L1165.55 32.4721L1167.13 66.6739C1167.41 72.9108 1168.39 77.5085 1170.05 80.4604C1171.72 83.4581 1174.34 85.1953 1177.91 85.672V86.9586C1170.86 86.3839 1165.6 86.0965 1162.12 86.0965ZM1125.14 60.6068L1147.99 10.8421H1153.49L1156.84 86.0965H1154.06C1152.06 86.0965 1149.44 86.2402 1146.2 86.521L1141.49 86.9586V85.672C1147.2 84.0981 1150.05 78.9845 1150.05 70.3181C1150.05 70.4552 1150.02 68.8617 1149.92 65.5375L1148.06 23.9102L1125.21 73.9623L1095.65 10.8421H1101.72L1125.14 60.6068ZM1089.79 10.8421L1122.35 80.1731L1119.07 86.9586L1089.51 23.9755L1087.65 66.6086C1087.55 70.8928 1087.51 72.6496 1087.51 71.8855C1087.51 80.2253 1090.72 84.8165 1097.15 85.672V86.9586C1097.1 86.9586 1096.43 86.8802 1095.15 86.7431C1089.82 86.312 1086.29 86.0965 1084.58 86.0965C1082.29 86.0965 1078.18 86.3839 1072.23 86.9586V85.672C1078.27 84.0981 1081.56 77.9134 1082.08 67.1049L1084.15 18.3329C1081.34 14.8128 1077.37 12.4617 1072.23 11.2666V9.98001C1076.08 10.411 1080.2 10.6462 1084.58 10.6919L1089.79 10.8421Z" fill="#FCE0C5"/>
<path d="M1238.55 31.4997H1237.06C1237.01 25.9812 1234.82 21.8864 1230.49 19.2218C1226.24 16.603 1221.1 15.2968 1215.06 15.2968C1210.25 15.2968 1206.31 16.3222 1203.21 18.3598C1200.06 20.4104 1198.5 22.866 1198.5 25.72C1198.5 28.7633 1199.74 31.1667 1202.21 32.93C1204.78 34.837 1209.85 37.0966 1217.42 39.7155C1224.46 42.1449 1229.39 44.1172 1232.19 45.6389C1235.19 47.3108 1237.69 49.688 1239.7 52.7836C1241.69 55.9706 1242.7 59.5169 1242.7 63.4223C1242.7 69.3718 1240.51 74.0348 1236.13 77.4113C1237.75 75.1777 1238.55 72.0364 1238.55 67.9938C1238.55 64.1799 1237.67 60.8034 1235.91 57.8515C1234.06 54.8473 1231.77 52.4701 1229.06 50.7068C1226.3 48.9043 1221.8 46.9712 1215.56 44.9271C1206.18 41.8315 1200.06 39.193 1197.21 37.0052C1194.35 34.7651 1192.93 31.2907 1192.93 26.5755C1192.93 21.1484 1195.12 16.8903 1199.5 13.7947C1203.87 10.7971 1210.09 9.30154 1218.13 9.30154C1223.61 9.30154 1230.29 10.2485 1238.2 12.149V12.6518L1238.34 15.3621C1238.34 16.7924 1238.39 18.51 1238.48 20.5019C1238.63 22.9313 1238.69 25.08 1238.69 26.9347C1238.69 28.169 1238.65 29.6972 1238.55 31.4997ZM1188.14 61.3455H1189.78C1190.12 67.4453 1192.57 72.4609 1197.14 76.4186C1201.62 80.324 1206.76 82.2702 1212.56 82.2702C1217.04 82.2702 1220.68 81.0097 1223.48 78.4823C1226.3 75.968 1227.7 72.9442 1227.7 69.4176C1227.7 65.7015 1226.34 62.828 1223.63 60.7773C1221.01 58.7789 1215.84 56.5192 1208.13 53.9918C1201.95 51.9477 1197.54 50.2562 1194.92 48.9239C1191.88 47.3565 1189.5 45.2405 1187.78 42.5694C1185.92 39.8526 1185 36.8093 1185 33.4329C1185 29.6711 1186.26 25.9812 1188.78 22.3631C1188.22 24.2179 1187.93 25.8375 1187.93 27.2221C1187.93 30.9316 1188.81 34.1904 1190.57 37.0052C1192.38 39.9049 1194.61 42.0927 1197.28 43.5752C1199.94 45.0903 1204.4 46.8341 1210.64 48.7802C1218.77 51.2554 1224.65 53.9918 1228.27 56.9894C1231.74 59.9022 1233.49 63.8011 1233.49 68.6992C1233.49 73.5124 1231.67 77.8684 1228.06 81.7673C1224.39 85.725 1218.92 87.6973 1211.64 87.6973C1208.68 87.6973 1204.59 87.1487 1199.35 86.058C1194.79 85.1045 1191.35 84.6017 1189.07 84.556L1188.57 83.9812C1188.62 83.178 1188.64 82.1265 1188.64 80.8465C1188.64 79.3183 1188.5 76.9672 1188.22 73.7736C1187.97 70.58 1187.86 68.2028 1187.86 66.6354C1187.86 64.5848 1187.95 62.828 1188.14 61.3455Z" fill="#FCE0C5"/>
</g>
<defs>
<filter id="filter0_ddd" x="0" y="0" width="1259.7" height="104.697" filterUnits="userSpaceOnUse" color-interpolation-filters="sRGB">
<feFlood flood-opacity="0" result="BackgroundImageFix"/>
<feColorMatrix in="SourceAlpha" type="matrix" values="0 0 0 0 0 0 0 0 0 0 0 0 0 0 0 0 0 0 127 0"/>
<feOffset dx="2" dy="4"/>
<feGaussianBlur stdDeviation="2.5"/>
<feColorMatrix type="matrix" values="0 0 0 0 0.843906 0 0 0 0 0.598781 0 0 0 0 0.231094 0 0 0 1 0"/>
<feBlend mode="normal" in2="BackgroundImageFix" result="effect1_dropShadow"/>
<feColorMatrix in="SourceAlpha" type="matrix" values="0 0 0 0 0 0 0 0 0 0 0 0 0 0 0 0 0 0 127 0"/>
<feOffset dx="4" dy="4"/>
<feGaussianBlur stdDeviation="6.5"/>
<feColorMatrix type="matrix" values="0 0 0 0 0.137255 0 0 0 0 0.121569 0 0 0 0 0.12549 0 0 0 0.64 0"/>
<feBlend mode="normal" in2="effect1_dropShadow" result="effect2_dropShadow"/>
<feColorMatrix in="SourceAlpha" type="matrix" values="0 0 0 0 0 0 0 0 0 0 0 0 0 0 0 0 0 0 127 0"/>
<feOffset dy="4"/>
<feGaussianBlur stdDeviation="2"/>
<feColorMatrix type="matrix" values="0 0 0 0 0 0 0 0 0 0 0 0 0 0 0 0 0 0 0.25 0"/>
<feBlend mode="normal" in2="effect2_dropShadow" result="effect3_dropShadow"/>
<feBlend mode="normal" in="SourceGraphic" in2="effect3_dropShadow" result="shape"/>
</filter>
</defs>
</svg>
